HIERARCHY
ROOT character_A_root
{
	OFFSET 0.000000 0.000000 0.000000
	CHANNELS 6 Xposition Yposition Zposition Xrotation Yrotation Zrotation
	JOINT character_A_pelvis
	{
		OFFSET 0.000000 0.000000 0.000000
		CHANNELS 3 Xrotation Yrotation Zrotation
		JOINT character_A_spine
		{
			OFFSET -0.006400 0.538076 0.000000
			CHANNELS 3 Xrotation Yrotation Zrotation
			JOINT character_A_head
			{
				OFFSET 0.012744 0.245383 0.000000
				CHANNELS 3 Xrotation Yrotation Zrotation
				JOINT character_A_nose
				{
					OFFSET -0.008787 -0.131621 -0.002605
					CHANNELS 3 Xrotation Yrotation Zrotation
					End Site
					{
						OFFSET 0.000000 0.050000 0.000000
					}
				}
			}
			JOINT character_A_left_shoulder
			{
				OFFSET 0.108057 -0.069769 0.094471
				CHANNELS 3 Xrotation Yrotation Zrotation
				JOINT character_A_left_elbow
				{
					OFFSET 0.031628 -0.239596 -0.139088
					CHANNELS 3 Xrotation Yrotation Zrotation
					JOINT character_A_left_wrist
					{
						OFFSET 0.010597 -0.101834 -0.186326
						CHANNELS 3 Xrotation Yrotation Zrotation
						End Site
						{
							OFFSET 0.000000 0.050000 0.000000
						}
					}
				}
			}
			JOINT character_A_right_shoulder
			{
				OFFSET -0.114595 -0.059038 0.102763
				CHANNELS 3 Xrotation Yrotation Zrotation
				JOINT character_A_right_elbow
				{
					OFFSET -0.054650 -0.246550 -0.079184
					CHANNELS 3 Xrotation Yrotation Zrotation
					JOINT character_A_right_wrist
					{
						OFFSET -0.039546 -0.120930 -0.167408
						CHANNELS 3 Xrotation Yrotation Zrotation
						End Site
						{
							OFFSET 0.000000 0.050000 0.000000
						}
					}
				}
			}
		}
		JOINT character_A_left_hip
		{
			OFFSET 0.064495 -0.018473 0.101805
			CHANNELS 3 Xrotation Yrotation Zrotation
			JOINT character_A_left_knee
			{
				OFFSET -0.013415 -0.404926 0.097567
				CHANNELS 3 Xrotation Yrotation Zrotation
				JOINT character_A_left_ankle
				{
					OFFSET -0.033827 -0.357830 0.207383
					CHANNELS 3 Xrotation Yrotation Zrotation
					JOINT character_A_left_big_toe
					{
						OFFSET -0.008355 -0.113888 0.066374
						CHANNELS 3 Xrotation Yrotation Zrotation
						End Site
						{
							OFFSET 0.000000 0.050000 0.000000
						}
					}
					JOINT character_A_left_small_toe
					{
						OFFSET 0.019861 -0.105049 0.045203
						CHANNELS 3 Xrotation Yrotation Zrotation
						End Site
						{
							OFFSET 0.000000 0.050000 0.000000
						}
					}
					JOINT character_A_left_heel
					{
						OFFSET -0.015740 -0.054451 0.041248
						CHANNELS 3 Xrotation Yrotation Zrotation
						End Site
						{
							OFFSET 0.000000 0.050000 0.000000
						}
					}
				}
			}
		}
		JOINT character_A_right_hip
		{
			OFFSET -0.060818 -0.017714 0.289385
			CHANNELS 3 Xrotation Yrotation Zrotation
			JOINT character_A_right_knee
			{
				OFFSET 0.024497 -0.400024 0.102706
				CHANNELS 3 Xrotation Yrotation Zrotation
				JOINT character_A_right_ankle
				{
					OFFSET 0.016037 -0.354408 0.210815
					CHANNELS 3 Xrotation Yrotation Zrotation
					JOINT character_A_right_big_toe
					{
						OFFSET -0.000881 -0.112993 0.055364
						CHANNELS 3 Xrotation Yrotation Zrotation
						End Site
						{
							OFFSET 0.000000 0.050000 0.000000
						}
					}
					JOINT character_A_right_small_toe
					{
						OFFSET -0.021559 -0.104872 0.042888
						CHANNELS 3 Xrotation Yrotation Zrotation
						End Site
						{
							OFFSET 0.000000 0.050000 0.000000
						}
					}
					JOINT character_A_right_heel
					{
						OFFSET 0.008712 -0.057795 0.038858
						CHANNELS 3 Xrotation Yrotation Zrotation
						End Site
						{
							OFFSET 0.000000 0.050000 0.000000
						}
					}
				}
			}
		}
	}
}
MOTION
Frames: 5
Frame Time: 0.03333333
0.997987 -0.007854 4.620431 0.000000 0.000000 0.000000 -5.204739 -23.116373 -7.996012 113.476655 -4.052061 151.339222 111.913487 3.810089 152.460403 0.000000 0.000000 -0.000000 112.009071 7.715248 -175.243367 -45.584205 12.145543 -4.185586 -0.000000 0.000000 0.000000 97.902312 8.531120 -173.043224 -30.296747 24.120816 -8.133152 -0.000000 0.000000 0.000000 -18.967046 20.363358 11.374711 11.807795 5.954439 13.419329 111.100902 -8.069632 -162.152041 0.000000 0.000000 0.000000 0.000000 0.000000 0.000000 0.000000 0.000000 0.000000 22.620246 23.914496 -5.546275 -12.902099 1.985013 6.845269 13.447182 9.243505 -10.244966 -0.000000 0.000000 0.000000 -0.000000 0.000000 0.000000 -0.000000 0.000000 0.000000
1.020577 -0.002017 4.673837 0.000000 0.000000 0.000000 -5.412747 -22.789633 -8.077800 101.336947 -9.287913 144.503158 103.000000 12.510405 161.076336 -0.000000 0.000000 0.000000 101.830443 18.503477 -162.296828 -49.569678 17.775285 -4.537048 -0.000000 0.000000 -0.000000 94.119856 15.102176 -162.922822 -26.489873 27.155313 -10.142596 0.000000 0.000000 -0.000000 -15.052626 20.810648 11.126555 8.927770 6.032757 12.919271 115.702916 -12.413698 -163.975089 -0.000000 0.000000 0.000000 -0.000000 0.000000 0.000000 -0.000000 0.000000 0.000000 22.660237 23.694321 -5.239534 -10.516921 2.576995 7.104981 15.832213 27.069585 -22.258404 0.000000 0.000000 0.000000 0.000000 0.000000 0.000000 0.000000 0.000000 0.000000
1.041435 0.003338 4.693610 0.000000 0.000000 0.000000 -5.656983 -23.091632 -8.066828 81.239159 -20.976982 125.490025 89.524915 28.165884 -177.121571 0.000000 0.000000 -0.000000 83.390776 34.041700 -134.563608 -52.665404 23.088140 -4.610726 -0.000000 0.000000 0.000000 84.547842 29.333120 -140.731748 -21.300088 28.970857 -12.335355 0.000000 0.000000 -0.000000 -11.755883 21.759679 10.879744 6.199315 6.094854 12.450175 117.542744 -12.590594 -163.853241 -0.000000 0.000000 -0.000000 -0.000000 0.000000 -0.000000 -0.000000 0.000000 -0.000000 23.016504 24.038983 -5.332481 -8.823614 2.978484 7.165090 14.862059 33.094117 -28.860545 0.000000 0.000000 -0.000000 0.000000 0.000000 -0.000000 0.000000 0.000000 -0.000000
1.061780 0.003920 4.673135 0.000000 0.000000 0.000000 -5.694259 -22.616795 -7.267164 22.086803 -20.421706 63.452616 35.161045 35.594444 -98.590771 0.000000 0.000000 0.000000 26.262170 29.381936 -49.895071 -51.767642 27.626056 -5.729903 0.000000 0.000000 0.000000 29.813807 38.250466 -57.758253 -10.469155 27.733517 -16.421597 -0.000000 0.000000 -0.000000 -9.996819 21.753054 10.266801 4.971029 6.170857 12.093465 117.206759 -11.691144 -162.031321 -0.000000 0.000000 0.000000 -0.000000 0.000000 0.000000 -0.000000 0.000000 0.000000 22.467917 23.637758 -4.798893 -7.927847 3.160126 6.796253 13.242075 30.198317 -28.138910 -0.000000 0.000000 -0.000000 -0.000000 0.000000 -0.000000 -0.000000 0.000000 -0.000000
1.086486 0.008342 4.652750 0.000000 0.000000 0.000000 -5.899294 -22.310536 -6.441655 5.923709 -8.018155 45.158226 21.497022 23.852679 -73.208110 -0.000000 0.000000 0.000000 17.062879 13.062998 -25.591325 -51.730884 33.157086 -6.791098 -0.000000 0.000000 -0.000000 12.517465 26.771813 -29.907864 -1.652680 27.489252 -21.367548 0.000000 0.000000 0.000000 -6.831910 22.072695 9.294712 2.977135 6.130432 11.247374 116.636509 -12.200222 -162.595041 0.000000 0.000000 0.000000 0.000000 0.000000 0.000000 0.000000 0.000000 0.000000 22.201008 23.215691 -4.846262 -6.416027 3.478040 6.735283 16.464759 35.372191 -34.520342 -0.000000 0.000000 0.000000 -0.000000 0.000000 0.000000 -0.000000 0.000000 0.000000
